<svg id="e_3_" data-name="e (3)" xmlns="http://www.w3.org/2000/svg" width="24" height="24" viewBox="0 0 24 24">
  <circle id="Эллипс_1" data-name="Эллипс 1" cx="12" cy="12" r="12" fill="#f05a22"/>
  <path id="Контур_2" data-name="Контур 2" d="M17.736,16.191c-4.455,3-7.182.636-7.364.182h0L21.1,12.009A7.656,7.656,0,0,0,13.282,5.1a8.111,8.111,0,0,0-8.182,8,8.212,8.212,0,0,0,8.364,8A8.707,8.707,0,0,0,20.1,18.009L18.191,16.1A.681.681,0,0,1,17.736,16.191ZM9.191,12.827a4.31,4.31,0,0,1,4.273-4.182,4.025,4.025,0,0,1,3.182,1.636l-7.455,3Z" transform="translate(-1.1 -1.1)" fill="#fff"/>
</svg>
